<svg width="93" height="93" viewBox="0 0 93 93" fill="none" xmlns="http://www.w3.org/2000/svg">
<path d="M34.875 73.625C15.5 79.4375 15.5 63.9375 7.75 62M62 85.25V70.2537C62.1454 68.406 61.8957 66.5485 61.2677 64.8047C60.6396 63.0609 59.6476 61.4708 58.3575 60.14C70.525 58.7838 83.3125 54.1725 83.3125 33.015C83.3115 27.6048 81.2304 22.4021 77.5 18.4838C79.2664 13.7505 79.1415 8.51861 77.1512 3.875C77.1512 3.875 72.5788 2.51875 62 9.61C53.1185 7.20294 43.7565 7.20294 34.875 9.61C24.2962 2.51875 19.7238 3.875 19.7238 3.875C17.7335 8.51861 17.6086 13.7505 19.375 18.4838C15.6167 22.4312 13.5335 27.6809 13.5625 33.1313C13.5625 54.1338 26.35 58.745 38.5175 60.2563C37.2426 61.5736 36.2594 63.1447 35.6318 64.8672C35.0042 66.5897 34.7464 68.425 34.875 70.2537V85.25" stroke="#FF5722" stroke-width="6" stroke-linecap="round" stroke-linejoin="round"/>
</svg>
