<svg width="117" height="117" viewBox="0 0 117 117" fill="none" xmlns="http://www.w3.org/2000/svg">
<path d="M101.595 22.4737C99.1051 19.9826 96.1487 18.0065 92.8949 16.6583C89.641 15.31 86.1534 14.6161 82.6313 14.6161C79.1091 14.6161 75.6215 15.31 72.3676 16.6583C69.1138 18.0065 66.1574 19.9826 63.6675 22.4737L58.5 27.6412L53.3325 22.4737C48.303 17.4442 41.4815 14.6187 34.3687 14.6187C27.256 14.6187 20.4345 17.4442 15.405 22.4737C10.3755 27.5032 7.54996 34.3247 7.54996 41.4375C7.54996 48.5503 10.3755 55.3717 15.405 60.4012L58.5 103.496L101.595 60.4012C104.086 57.9113 106.062 54.955 107.41 51.7011C108.759 48.4472 109.453 44.9596 109.453 41.4375C109.453 37.9154 108.759 34.4277 107.41 31.1739C106.062 27.92 104.086 24.9637 101.595 22.4737Z" stroke="#FF6F00" stroke-width="6" stroke-linecap="round" stroke-linejoin="round"/>
</svg>
