<svg width="135" height="135" viewBox="0 0 135 135" fill="none" xmlns="http://www.w3.org/2000/svg">
<path d="M118.125 56.25C118.125 95.625 67.5 129.375 67.5 129.375C67.5 129.375 16.875 95.625 16.875 56.25C16.875 42.8234 22.2087 29.9467 31.7027 20.4527C41.1967 10.9587 54.0734 5.625 67.5 5.625C80.9266 5.625 93.8032 10.9587 103.297 20.4527C112.791 29.9467 118.125 42.8234 118.125 56.25Z" stroke="#FF6F00" stroke-width="6" stroke-linecap="round" stroke-linejoin="round"/>
<path d="M67.5 73.125C76.8198 73.125 84.375 65.5698 84.375 56.25C84.375 46.9302 76.8198 39.375 67.5 39.375C58.1802 39.375 50.625 46.9302 50.625 56.25C50.625 65.5698 58.1802 73.125 67.5 73.125Z" stroke="#FF6F00" stroke-width="6" stroke-linecap="round" stroke-linejoin="round"/>
</svg>
