<svg width="62" height="56" viewBox="0 0 62 56" fill="none" xmlns="http://www.w3.org/2000/svg">
<g clip-path="url(#clip0_5_1529)">
<path d="M2.58337 2.33337H12.9167L19.84 33.5767C20.0763 34.651 20.7233 35.6159 21.6679 36.3027C22.6124 36.9895 23.7943 37.3544 25.0067 37.3334H50.1167C51.3291 37.3544 52.511 36.9895 53.4556 36.3027C54.4001 35.6159 55.0471 34.651 55.2834 33.5767L59.4167 14H15.5M25.8334 49C25.8334 50.2887 24.6768 51.3334 23.25 51.3334C21.8233 51.3334 20.6667 50.2887 20.6667 49C20.6667 47.7114 21.8233 46.6667 23.25 46.6667C24.6768 46.6667 25.8334 47.7114 25.8334 49ZM54.25 49C54.25 50.2887 53.0934 51.3334 51.6667 51.3334C50.24 51.3334 49.0834 50.2887 49.0834 49C49.0834 47.7114 50.24 46.6667 51.6667 46.6667C53.0934 46.6667 54.25 47.7114 54.25 49Z" stroke="#FF6F00" stroke-width="6" stroke-linecap="round" stroke-linejoin="round"/>
</g>
<defs>
<clipPath id="clip0_5_1529">
<rect width="62" height="56" fill="white"/>
</clipPath>
</defs>
</svg>
