<svg width="51" height="51" viewBox="0 0 51 51" fill="none" xmlns="http://www.w3.org/2000/svg">
<path d="M6.375 12.75H10.625M10.625 12.75H44.625M10.625 12.75V42.5C10.625 43.6272 11.0728 44.7082 11.8698 45.5052C12.6668 46.3022 13.7478 46.75 14.875 46.75H36.125C37.2522 46.75 38.3332 46.3022 39.1302 45.5052C39.9272 44.7082 40.375 43.6272 40.375 42.5V12.75M17 12.75V8.5C17 7.37283 17.4478 6.29183 18.2448 5.4948C19.0418 4.69777 20.1228 4.25 21.25 4.25H29.75C30.8772 4.25 31.9582 4.69777 32.7552 5.4948C33.5522 6.29183 34 7.37283 34 8.5V12.75M21.25 23.375V36.125M29.75 23.375V36.125" stroke="#862525" stroke-width="5" stroke-linecap="round" stroke-linejoin="round"/>
</svg>
