<svg width="54" height="51" viewBox="0 0 54 51" fill="none" xmlns="http://www.w3.org/2000/svg">
<path d="M43.87 6.53777C43.6341 6.53777 43.3982 6.48733 43.1918 6.38646C37.5302 3.88997 32.6352 2.83085 26.7672 2.83085C20.9286 2.83085 15.3849 4.01606 10.3425 6.38646C9.63482 6.71428 8.75019 6.48733 8.33737 5.88212C7.95403 5.27691 8.21942 4.49518 8.92712 4.16736C14.4118 1.62043 20.4273 0.309143 26.7672 0.309143C33.048 0.309143 38.5327 1.49435 44.5482 4.14214C45.2854 4.46996 45.5508 5.22648 45.1675 5.83169C44.9021 6.28559 44.4008 6.53777 43.87 6.53777ZM1.67315 19.7767C1.37827 19.7767 1.0834 19.7011 0.818009 19.5498C0.139793 19.1463 -0.00764625 18.3646 0.464157 17.7846C3.38344 14.2542 7.09888 11.4803 11.522 9.5386C20.7812 5.45343 32.6352 5.42821 41.9238 9.51338C46.347 11.4551 50.0624 14.2038 52.9817 17.7089C53.4535 18.2637 53.3061 19.0707 52.6279 19.4741C51.9496 19.8776 51.0355 19.7515 50.5637 19.1715C47.9098 15.9942 44.5482 13.4977 40.5674 11.7577C32.1044 8.05079 21.2825 8.05079 12.849 11.7829C8.83866 13.5481 5.47706 16.0698 2.82317 19.2472C2.58727 19.6002 2.14495 19.7767 1.67315 19.7767ZM20.103 50.2138C19.7196 50.2138 19.3363 50.0877 19.0709 49.8355C16.5055 47.6416 15.1195 46.2295 13.1439 43.1782C11.1092 40.0765 10.0477 36.2939 10.0477 32.234C10.0477 24.7445 17.5375 18.642 26.7377 18.642C35.9378 18.642 43.4277 24.7445 43.4277 32.234C43.4277 32.9401 42.779 33.4948 41.9533 33.4948C41.1277 33.4948 40.4789 32.9401 40.4789 32.234C40.4789 26.1314 34.316 21.1637 26.7377 21.1637C19.1593 21.1637 12.9964 26.1314 12.9964 32.234C12.9964 35.8652 13.94 39.2191 15.7388 41.9426C17.626 44.8425 18.9234 46.0782 21.194 48.0451C21.7543 48.5494 21.7543 49.3312 21.194 49.8355C20.8696 50.0877 20.4863 50.2138 20.103 50.2138ZM41.2456 45.5486C37.7366 45.5486 34.6404 44.7921 32.1044 43.3043C27.7108 40.7574 25.0864 36.6218 25.0864 32.234C25.0864 31.5279 25.7351 30.9731 26.5607 30.9731C27.3864 30.9731 28.0351 31.5279 28.0351 32.234C28.0351 35.7896 30.1582 39.1435 33.7557 41.2113C35.8494 42.4217 38.2968 43.0017 41.2456 43.0017C41.9533 43.0017 43.1328 42.926 44.3123 42.7495C45.1085 42.6234 45.8752 43.0773 46.0226 43.7834C46.1701 44.4643 45.6393 45.1199 44.8136 45.246C43.1328 45.5234 41.6584 45.5486 41.2456 45.5486ZM35.3186 50.7433C35.2006 50.7433 35.0532 50.7181 34.9352 50.6929C30.2467 49.5833 27.18 48.0955 23.9658 45.3973C19.8376 41.8921 17.567 37.227 17.567 32.234C17.567 28.1488 21.6363 24.8202 26.6492 24.8202C31.6621 24.8202 35.7314 28.1488 35.7314 32.234C35.7314 34.9322 38.4738 37.1261 41.8649 37.1261C45.2559 37.1261 47.9983 34.9322 47.9983 32.234C47.9983 22.7271 38.4148 15.0107 26.6197 15.0107C18.2452 15.0107 10.5784 18.995 7.12837 25.1732C5.97835 27.2158 5.3886 29.6114 5.3886 32.234C5.3886 34.2009 5.59501 37.3026 7.36427 41.3374C7.65915 41.993 7.27581 42.7243 6.50913 42.9512C5.74245 43.2034 4.88731 42.8504 4.62192 42.22C3.17702 38.9165 2.46932 35.6383 2.46932 32.234C2.46932 29.2079 3.14753 26.4593 4.47448 24.0636C8.39634 17.0281 17.0952 12.4638 26.6197 12.4638C40.0366 12.4638 50.9471 21.315 50.9471 32.2088C50.9471 36.2939 46.8778 39.6226 41.8649 39.6226C36.8519 39.6226 32.7826 36.2939 32.7826 32.2088C32.7826 29.5105 30.0403 27.3167 26.6492 27.3167C23.2581 27.3167 20.5158 29.5105 20.5158 32.2088C20.5158 36.5209 22.462 40.5556 26.03 43.5817C28.8313 45.9521 31.5147 47.2634 35.6724 48.2468C36.4686 48.4234 36.9109 49.1294 36.7045 49.7851C36.5571 50.3651 35.9378 50.7433 35.3186 50.7433Z" fill="black"/>
</svg>
