<svg width="80" height="80" viewBox="0 0 80 80" fill="none" xmlns="http://www.w3.org/2000/svg">
<path d="M57.8013 21.9554H57.8343M23.1497 7.10474H56.1512C65.2643 7.10474 72.6519 14.4924 72.6519 23.6055V56.6069C72.6519 65.72 65.2643 73.1077 56.1512 73.1077H23.1497C14.0366 73.1077 6.64897 65.72 6.64897 56.6069V23.6055C6.64897 14.4924 14.0366 7.10474 23.1497 7.10474ZM52.851 38.0271C53.2583 40.7737 52.7892 43.5787 51.5104 46.0432C50.2316 48.5078 48.2082 50.5063 45.7281 51.7547C43.248 53.003 40.4374 53.4375 37.6961 52.9964C34.9547 52.5552 32.4223 51.261 30.459 49.2977C28.4957 47.3343 27.2014 44.8019 26.7603 42.0606C26.3192 39.3193 26.7537 36.5087 28.002 34.0286C29.2503 31.5484 31.2489 29.5251 33.7134 28.2463C36.178 26.9675 38.983 26.4983 41.7295 26.9056C44.5311 27.3211 47.1248 28.6265 49.1275 30.6292C51.1301 32.6319 52.4356 35.2255 52.851 38.0271Z" stroke="#F2F2F2" stroke-width="8" stroke-linecap="round" stroke-linejoin="round"/>
</svg>
